{"title":"The Secret of Crickley Hall S01","uid":9998457,"size":1257686546,"categoryP":"video","categoryS":"tv_shows","magnet":"?xt=urn:btih:55cfe0ff9832b165cb083c8e25570c5f7ffb02a1&amp;dn=The+Secret+of+Crickley+Hall+S01&amp;tr=udp%3A%2F%2Ftracker.openbittorrent.com%3A80&amp;tr=udp%3A%2F%2Fopen.demonii.com%3A1337&amp;tr=udp%3A%2F%2Ftracker.coppersurfer.tk%3A6969&amp;tr=udp%3A%2F%2Fexodus.desync.com%3A6969","seeders":1,"leechers":0,"uploader":"RedBaron58","files":3,"time":1397950707,"description":"The Secrets of Crickley Hall (2012) 3 part 1 hour episodes DVDrip x264 format mp4\n &lt;a href=&quot;\nhttp://www.imdb.com/title/tt2294227/&quot; rel=&quot;nofollow&quot; target=&quot;_NEW&quot;&gt;\nhttp://www.imdb.com/title/tt2294227/&lt;/a&gt;\n\n\nThank you for your kind comments and thumbs ups on my other torrents, your feedback is welcome.\n\n\nAbout the Series:\nNearly a year after their son goes missing, Londoners Gabe and Eve Caleigh and their two daughters \nmove to Crickley Hall. Gabe hopes a few months away from the city, will help his family heal. \nBut it soon becomes apparent, their new home is haunted.\n\n\nI hope you enjoy.\n\n\nTechnical:\n\nGeneral\nComplete name                            : G:The Secret of Crickley Hall S01The Secret Of Crickley Hall S01E01 x264 RB58.mp4\nFormat                                   : MPEG-4\nFormat profile                           : Base Media / Version 2\nCodec ID                                 : mp42\nFile size                                : 398 MiB\nDuration                                 : 58mn 4s\nOverall bit rate mode                    : Variable\nOverall bit rate                         : 957 Kbps\nEncoded date                             : UTC 2014-04-19 12:58:44\nTagged date                              : UTC 2014-04-19 13:11:15\nWriting application                      : HandBrake 0.9.8 2012071700\n\nVideo\nID                                       : 1\nFormat                                   : AVC\nFormat/Info                              : Advanced Video Codec\nFormat profile                           : &lt;a class=&quot;__cf_email__&quot; href=&quot;/cdn-cgi/l/email-protection&quot; data-cfemail=&quot;0b466a62654b4738253b&quot;&gt;[email&amp;#160;protected]&lt;/a&gt;&lt;script cf-hash='f9e31' type=&quot;text/javascript&quot;&gt;\n/* &lt;![CDATA[ */!function(){try{var t=&quot;currentScript&quot;in document?document.currentScript:function(){for(var t=document.getElementsByTagName(&quot;script&quot;),e=t.length;e--;)if(t[e].getAttribute(&quot;cf-hash&quot;))return t[e]}();if(t&amp;&amp;t.previousSibling){var e,r,n,i,c=t.previousSibling,a=c.getAttribute(&quot;data-cfemail&quot;);if(a){for(e=&quot;&quot;,r=parseInt(a.substr(0,2),16),n=2;a.length-n;n+=2)i=parseInt(a.substr(n,2),16)^r,e+=String.fromCharCode(i);e=document.createTextNode(e),c.parentNode.replaceChild(e,c)}}}catch(u){}}();/* ]]&gt; */&lt;/script&gt;\nFormat settings, CABAC                   : Yes\nFormat settings, ReFrames                : 4 frames\nCodec ID                                 : avc1\nCodec ID/Info                            : Advanced Video Coding\nDuration                                 : 58mn 4s\nBit rate mode                            : Variable\nBit rate                                 : 800 Kbps\nWidth                                    : 720 pixels\nHeight                                   : 576 pixels\nDisplay aspect ratio                     : 16:9\nFrame rate mode                          : Constant\nFrame rate                               : 25.000 fps\nStandard                                 : PAL\nColor space                              : YUV\nChroma subsampling                       : 4:2:0\nBit depth                                : 8 bits\nScan type                                : Progressive\nBits/(Pixel*Frame)                       : 0.077\nStream size                              : 332 MiB (84%)\nWriting library                          : x264 core 120\nEncoding settings                        : cabac=1 / ref=1 / deblock=1:0:0 \nEncoded date                             : UTC 2014-04-19 12:58:44\nTagged date                              : UTC 2014-04-19 13:11:15\nColor primaries                          : BT.601 NTSC\nTransfer characteristics                 : BT.709\nMatrix coefficients                      : BT.601\n\nAudio\nID                                       : 2\nFormat                                   : MPEG Audio\nFormat version                           : Version 1\nFormat profile                           : Layer 3\nCodec ID                                 : 69\nDuration                                 : 58mn 4s\nBit rate mode                            : Variable\nBit rate                                 : 153 Kbps\nMaximum bit rate                         : 169 Kbps\nChannel(s)                               : 2 channels\nSampling rate                            : 48.0 KHz\nCompression mode                         : Lossy\nDelay relative to video                  : 80ms\nStream size                              : 63.7 MiB (16%)\nLanguage                                 : English\nEncoded date                             : UTC 2014-04-19 12:58:44\nTagged date                              : UTC 2014-04-19 13:11:14","torrent":{"xt":"urn:btih:55cfe0ff9832b165cb083c8e25570c5f7ffb02a1","amp;dn":"The+Secret+of+Crickley+Hall+S01","amp;tr":["udp%3A%2F%2Ftracker.openbittorrent.com%3A80","udp%3A%2F%2Fopen.demonii.com%3A1337","udp%3A%2F%2Ftracker.coppersurfer.tk%3A6969","udp%3A%2F%2Fexodus.desync.com%3A6969"],"infoHash":"55cfe0ff9832b165cb083c8e25570c5f7ffb02a1","infoHashBuffer":{"type":"Buffer","data":[85,207,224,255,152,50,177,101,203,8,60,142,37,87,12,95,127,251,2,161]},"announce":[],"urlList":[]}}